<svg width="60" height="60" viewBox="0 0 60 60" fill="none" xmlns="http://www.w3.org/2000/svg">
<path d="M0.554535 0V59.4455H60V0H0.554535ZM4.84847 4.25455H17.5924V12.7439H4.84847V4.25455ZM4.84847 14.95H17.5924V27.6742H4.84847V14.95ZM19.7 55.2697H4.84847V33.9773H19.7V55.2697ZM47.2757 55.2697H23.9151V31.85H47.2561L47.2757 55.2697ZM55.1545 54.0682C55.0025 54.3122 54.7928 54.5152 54.5439 54.6591C53.9181 55.1285 53.1439 55.3564 52.3635 55.3009C51.5832 55.2455 50.849 54.9104 50.2958 54.3572C49.7426 53.804 49.4076 53.0698 49.3521 52.2895C49.2966 51.5091 49.5245 50.735 49.9939 50.1091C50.1464 49.8721 50.3479 49.6706 50.5848 49.5182C51.2085 49.1056 51.9547 48.9192 52.6992 48.9901C53.4436 49.0611 54.1412 49.385 54.6757 49.908C55.2102 50.431 55.5493 51.1214 55.6364 51.8641C55.7235 52.6068 55.5535 53.3569 55.1545 53.9894V54.0682ZM55.1545 45.5788C55.0025 45.8228 54.7928 46.0258 54.5439 46.1697C53.9181 46.6391 53.1439 46.867 52.3635 46.8115C51.5832 46.7561 50.849 46.421 50.2958 45.8678C49.7426 45.3146 49.4076 44.5804 49.3521 43.8001C49.2966 43.0197 49.5245 42.2456 49.9939 41.6197C50.1464 41.3827 50.3479 41.1812 50.5848 41.0288C51.2085 40.6162 51.9547 40.4298 52.6992 40.5007C53.4436 40.5717 54.1412 40.8956 54.6757 41.4186C55.2102 41.9416 55.5493 42.632 55.6364 43.3747C55.7235 44.1174 55.5535 44.8675 55.1545 45.5V45.5788ZM55.7454 27.6742H19.6606V21.2333H55.7454V27.6742ZM55.7454 19.1848H19.6606V12.7439H55.7454V19.1848ZM55.7454 10.6955H19.6606V4.25455H55.7454V10.6955Z" fill="white"/>
</svg>
