<svg id="圖層_1" data-name="圖層 1" xmlns="http://www.w3.org/2000/svg" viewBox="0 0 452.39 162.24"><defs><style>.cls-1{fill:#7d7d7d;}</style></defs><polygon class="cls-1" points="121.52 104.8 4 104.8 10.86 111.66 128.38 111.66 121.52 104.8"/><path class="cls-1" d="M138.74,115.35H26.65L19.27,108H131.36Zm-111.67-1H136.33L130.94,109H21.68Z"/><polygon class="cls-1" points="252.44 129.53 98.54 129.53 107.52 138.51 261.42 138.51 252.44 129.53"/><path class="cls-1" d="M344,144H164.62l-7.88-11H336.12Zm-178.86-1H342.05l-6.44-9H158.69Z"/><path class="cls-1" d="M145.73,37.09a9.58,9.58,0,0,1,1.75,3.68,10.59,10.59,0,0,1,.09,4.35l-4.3,24.4-.37,2.08-4.63,26.28a13.45,13.45,0,0,1-1.66,4.54,13.12,13.12,0,0,1-3.13,3.59,17.48,17.48,0,0,1-4.17,2.46,11.84,11.84,0,0,1-4.58.94H82a10.05,10.05,0,0,1-4.44-.94A9.68,9.68,0,0,1,74.33,106a9.57,9.57,0,0,1-1.85-3.59,10,10,0,0,1-.16-4.54l5.13-29.12L88,80.67,85.14,96.93H126l4.47-25.33,4.5-25.53H94.11L91,63.84H78.32l3.3-18.72a12,12,0,0,1,1.72-4.35,16,16,0,0,1,3.13-3.59,15.51,15.51,0,0,1,4.08-2.46c.81-.25,1.55-.5,2.24-.75l2.52-.19h42.76a11.21,11.21,0,0,1,4.35.85A8,8,0,0,1,145.73,37.09Z"/><path class="cls-1" d="M205.49,55.33a9.78,9.78,0,0,1,2,8L201.4,98.07a11.86,11.86,0,0,1-1.72,4.35,15.73,15.73,0,0,1-3.13,3.59,16.13,16.13,0,0,1-4,2.46,11.6,11.6,0,0,1-4.67.94H160.29a9.7,9.7,0,0,1-7.45-3.4,9.74,9.74,0,0,1-2.05-7.94L155,74.43l11.09,7.76-2.6,14.74h25.69l5.74-32.52H169.19l-1.64,9.27H155.09l1.83-10.4a11.82,11.82,0,0,1,1.73-4.35,15.31,15.31,0,0,1,3.13-3.6A14,14,0,0,1,165.83,53a12.82,12.82,0,0,1,4.56-.85H198a10.37,10.37,0,0,1,4.36.85A9,9,0,0,1,205.49,55.33Z"/><path class="cls-1" d="M269.92,55.33a9.78,9.78,0,0,1,1.86,3.6,9.62,9.62,0,0,1,.19,4.35l-6.13,34.79a12.06,12.06,0,0,1-1.73,4.35,15.41,15.41,0,0,1-7.2,6,11.84,11.84,0,0,1-4.58.94H224.72l-4,22.7H208.07l14.1-80h12.66l-7.91,44.81h26.46l5.74-32.52H232.66l10.41-12.29h19.37a10.48,10.48,0,0,1,4.25.85A8.74,8.74,0,0,1,269.92,55.33Z"/><path class="cls-1" d="M321.73,77.27a8.7,8.7,0,0,1,1.76,3.59,10.58,10.58,0,0,1,.1,4.35l-2.27,12.86a12.8,12.8,0,0,1-1.63,4.35,13.84,13.84,0,0,1-3,3.59,15.62,15.62,0,0,1-4.07,2.46,11.88,11.88,0,0,1-4.58.94H280l-5.66-12.48h34.7l1.87-10.58H287.54a10.49,10.49,0,0,1-4.26-.86,8.52,8.52,0,0,1-3.23-2.36,8.64,8.64,0,0,1-1.76-3.59,11.13,11.13,0,0,1-.06-4.54l2.06-11.72a12.93,12.93,0,0,1,1.63-4.35,13.88,13.88,0,0,1,3-3.6A14.17,14.17,0,0,1,289,53a12.82,12.82,0,0,1,4.56-.85h33.75l-2.17,12.29H292.56l-1.71,9.64h23.4a10.64,10.64,0,0,1,4.25.85A8.65,8.65,0,0,1,321.73,77.27Z"/><path class="cls-1" d="M331.66,105.93h13.18l-2.29,13H329.36Zm3.73-6.8L340.67,36h19.8l-17,63.09Z"/><path class="cls-1" d="M360.58,22.39H163L156,15.32h97.36l3,3H356.63Zm-197.12-1H358.22l-2-2.07H255.92l-3-3H158.39Z"/><polygon class="cls-1" points="444.49 27.89 441.51 24.83 385.12 24.83 382.11 21.82 203.23 21.82 209.3 27.89 444.49 27.89"/><polygon class="cls-1" points="369.81 140.26 300.84 140.26 308.89 148.31 377.86 148.31 369.81 140.26"/></svg>